<svg width="48" height="52" viewBox="0 0 48 52" fill="none" xmlns="http://www.w3.org/2000/svg">
<path d="M12.0821 0H17.3543V11.3917C17.3543 16.6952 14.1847 19.8648 8.7242 19.8648C3.04406 19.8648 0 16.5383 0 11.3917V0H5.27218V11.4231C5.27218 13.6826 6.55884 15.0006 8.69282 15.0006C10.8268 15.0006 12.0821 13.7139 12.0821 11.4231V0ZM10.6385 39.8552L8.97526 39.4472C7.12372 38.9765 6.24502 38.443 6.24502 37.5329C6.24502 36.8425 7.12372 36.0893 8.97526 36.0893C10.6699 36.0893 12.0193 36.8111 13.1491 37.8153L16.4128 35.1792C15.032 32.857 12.0193 31.5703 9.00664 31.5703C3.89137 31.5703 1.00422 34.3633 1.00422 37.6584C1.00422 40.2004 2.82438 42.8364 7.5003 43.9976L9.25769 44.4369C10.9837 44.8763 11.6113 45.1901 11.6113 46.0374C11.6113 47.073 10.2305 47.6693 8.47314 47.6693C6.4647 47.6693 4.95836 46.8533 3.64031 45.5039L0.376584 48.14C1.82016 50.7447 5.52324 52 8.50453 52C13.8709 52 17.1032 49.4894 17.1032 45.8805C17.0718 43.1817 15.3458 40.9849 10.6385 39.8552ZM47.073 32.1352H30.2836V36.717H36.0266V51.4037H41.3301V36.717H47.073V32.1352V32.1352ZM42.4285 5.71153H34.9596V13.1804H42.4285V5.71153Z" fill="#000300"/>
</svg>
